<svg id="Layer_1" data-name="Layer 1" xmlns="http://www.w3.org/2000/svg" viewBox="0 0 501.38 89.16"><defs><style>.cls-1,.cls-2{fill:#231f20;}.cls-1{fill-rule:evenodd;}</style></defs><path class="cls-1" d="M154.88,121.44c2.74,0,4.44-2.13,4.44-4.84a4.45,4.45,0,1,0-8.89,0c0,2.71,1.7,4.84,4.45,4.84Zm0-.9c-2.3,0-3.09-2.17-3.09-3.94s.89-3.63,3.09-3.63S158,114.9,158,116.6s-.78,3.94-3.08,3.94Z" transform="translate(-43.26 -44.99)"/><polygon class="cls-2" points="122.56 67.23 118.18 67.23 118.18 76.3 119.41 76.3 119.41 72.49 122.5 72.49 122.5 71.58 119.41 71.58 119.41 68.13 122.56 68.13 122.56 67.23 122.56 67.23"/><polygon class="cls-2" points="136.64 67.23 135.41 67.23 135.41 70.88 131.07 70.88 131.07 67.23 129.84 67.23 129.84 76.3 131.07 76.3 131.07 71.79 135.41 71.79 135.41 76.3 136.64 76.3 136.64 67.23 136.64 67.23"/><polygon class="cls-2" points="144.62 67.23 140.24 67.23 140.24 76.3 145.17 76.3 145.17 75.39 141.47 75.39 141.47 71.97 144.56 71.97 144.56 71.06 141.47 71.06 141.47 68.13 144.62 68.13 144.62 67.23 144.62 67.23"/><path class="cls-1" d="M193.27,112.22l-3.62,9.07h1.19l.95-2.67h3.4l.91,2.67h1.42l-3.31-9.07Zm-1.13,5.49c.48-1.26,1-2.51,1.41-4.15h0c.45,1.64.88,2.89,1.32,4.15Z" transform="translate(-43.26 -44.99)"/><polygon class="cls-2" points="156.22 76.3 161.15 76.3 161.15 75.39 157.46 75.39 157.46 67.23 156.22 67.23 156.22 76.3 156.22 76.3"/><polygon class="cls-2" points="165.6 76.3 165.6 68.13 168.46 68.13 168.46 67.23 161.52 67.23 161.52 68.13 164.37 68.13 164.37 76.3 165.6 76.3 165.6 76.3"/><polygon class="cls-2" points="177.85 67.23 176.62 67.23 176.62 70.88 172.28 70.88 172.28 67.23 171.04 67.23 171.04 76.3 172.28 76.3 172.28 71.79 176.62 71.79 176.62 76.3 177.85 76.3 177.85 67.23 177.85 67.23"/><path class="cls-2" d="M233.55,113a2.86,2.86,0,0,0-2.2-.91,2.35,2.35,0,0,0-2.54,2.14,3,3,0,0,0,1.56,2.42c.73.55,2.06,1.29,2.06,2.43a1.4,1.4,0,0,1-1.55,1.49,3.2,3.2,0,0,1-1.93-.79l-.55.75a3.73,3.73,0,0,0,2.51.94,2.55,2.55,0,0,0,2.75-2.37c0-1.16-.71-2-1.93-2.9s-1.69-1.32-1.69-2a1.24,1.24,0,0,1,1.39-1.23,2.75,2.75,0,0,1,1.53.65l.59-.65Z" transform="translate(-43.26 -44.99)"/><path class="cls-2" d="M243.07,113a4.24,4.24,0,0,0-2.74-.92,4.71,4.71,0,0,0-4.94,4.67,4.49,4.49,0,0,0,4.78,4.71,5.14,5.14,0,0,0,2.8-.83l-.48-.75a3.9,3.9,0,0,1-2.25.68,3.57,3.57,0,0,1-3.5-3.84,3.42,3.42,0,0,1,3.5-3.73,4,4,0,0,1,2.32.79l.51-.78Z" transform="translate(-43.26 -44.99)"/><polygon class="cls-2" points="203.96 76.3 203.96 67.23 202.72 67.23 202.72 76.3 203.96 76.3 203.96 76.3"/><polygon class="cls-2" points="211.93 67.23 207.55 67.23 207.55 76.3 212.47 76.3 212.47 75.39 208.78 75.39 208.78 71.97 211.87 71.97 211.87 71.06 208.78 71.06 208.78 68.13 211.93 68.13 211.93 67.23 211.93 67.23"/><path class="cls-2" d="M266.37,112.22h-1v7.23h0c-.6-.91-3.88-4.88-5.83-7.23h-.92v9.07h1v-7.22h0c.54.79,3.85,4.86,5.78,7.22h1v-9.07Z" transform="translate(-43.26 -44.99)"/><path class="cls-2" d="M276.43,113a4.3,4.3,0,0,0-2.75-.92,4.71,4.71,0,0,0-4.94,4.67,4.5,4.5,0,0,0,4.79,4.71,5.1,5.1,0,0,0,2.79-.83l-.48-.75a3.85,3.85,0,0,1-2.25.68,3.57,3.57,0,0,1-3.49-3.84,3.42,3.42,0,0,1,3.49-3.73,4,4,0,0,1,2.33.79l.51-.78Z" transform="translate(-43.26 -44.99)"/><polygon class="cls-2" points="240.21 67.23 235.83 67.23 235.83 76.3 240.75 76.3 240.75 75.39 237.06 75.39 237.06 71.97 240.14 71.97 240.14 71.06 237.06 71.06 237.06 68.13 240.21 68.13 240.21 67.23 240.21 67.23"/><path class="cls-2" d="M291.1,113a2.83,2.83,0,0,0-2.19-.91,2.35,2.35,0,0,0-2.54,2.14,2.94,2.94,0,0,0,1.56,2.42c.72.55,2.06,1.29,2.06,2.43a1.41,1.41,0,0,1-1.55,1.49,3.2,3.2,0,0,1-1.93-.79l-.55.75a3.71,3.71,0,0,0,2.5.94,2.56,2.56,0,0,0,2.76-2.37c0-1.16-.71-2-1.93-2.9s-1.69-1.32-1.69-2A1.23,1.23,0,0,1,289,113a2.75,2.75,0,0,1,1.54.65l.58-.65Z" transform="translate(-43.26 -44.99)"/><path d="M64.26,92.47c0-.66-.22-.7-.73-.82L60.75,91a3.28,3.28,0,0,0-.51-.1c-.25,0-.24.37-.23.57l-.15,0c0-.31,0-.62,0-.93,0-.83-.09-1.66-.14-2.48l1-.16V88c-.69.25-.85.58-.83,1.12l.05,1,1.87.45,0-.57c0-.44-.17-.62-.76-.87V89l1.75.31v.15c-.24,0-.65-.08-.79.23a1.15,1.15,0,0,0-.05.4l0,.53,1.46.36a1.43,1.43,0,0,0,.36.06c.46,0,.36-.84.35-1.14A1.51,1.51,0,0,0,63,88.31v-.17l1.18.29c0,1,.07,2,.11,3,0,.35.06.69.08,1Z" transform="translate(-43.26 -44.99)"/><path d="M60.83,84.68a1.82,1.82,0,0,0-.37-.13c-.19,0-.2.37-.22.52L60.09,85l0-1.17,1.13.48,1,.41a9.62,9.62,0,0,0,1.93.67c.06,0,.19,0,.2-.1,0-.25-.66-.7-.86-.81l.07-.16c.36.2,1,.65,1,1.15a.42.42,0,0,1-.5.39,1.85,1.85,0,0,1-.42-.11h0c.37.26.84.65.79,1.2a.83.83,0,0,1-1,.77,2.32,2.32,0,0,1-1.93-2.14.56.56,0,0,1,.33-.45Zm3,2.54a.39.39,0,0,0,.49-.34c.08-.77-1.61-1.54-2.13-1.59-.19,0-.44,0-.46.3C61.64,86.31,63.28,87.17,63.82,87.22Z" transform="translate(-43.26 -44.99)"/><path d="M64.26,83.07a1.65,1.65,0,0,0,.37.2.24.24,0,0,0,.28-.2c.12-.47-.52-1.13-.82-1.38l-1.43-1,.13-.53.76.49a7.17,7.17,0,0,0,1.57.83c.06,0,.19,0,.22-.07s-.48-.75-.66-.87l.09-.14c.33.24.86.7.73,1.19a.45.45,0,0,1-.62.35l-.39-.14h0c.32.36.75.86.61,1.43a.58.58,0,0,1-.71.46,1.62,1.62,0,0,1-.57-.29l-.36-.23a4.34,4.34,0,0,0-.82-.49c-.07,0-.27-.12-.31,0s.51.85.68,1l-.1.13c-.33-.3-.87-.82-.73-1.35a.48.48,0,0,1,.6-.32,2.73,2.73,0,0,1,.72.37Z" transform="translate(-43.26 -44.99)"/><path d="M65.86,78.13a1.52,1.52,0,0,1,.38,1.55.82.82,0,0,1-1.16.46,2.26,2.26,0,0,1-1.25-2.53c.09-.23.33-.48.57-.38a.29.29,0,0,1,.16.37.26.26,0,0,1-.32.15c-.1,0-.11-.14-.16-.16s-.11.07-.13.13c-.28.69,1.14,1.85,1.59,2a.42.42,0,0,0,.6-.2,1.4,1.4,0,0,0-.41-1.31Z" transform="translate(-43.26 -44.99)"/><path d="M65.66,74.38l.26-.46.54.67a7.16,7.16,0,0,0,1.3,1.28s.14.07.19,0c.12-.23-.34-.89-.46-1.08l.13-.11c.24.39.71.92.43,1.42a.39.39,0,0,1-.56.2,1.44,1.44,0,0,1-.3-.24h0a1.41,1.41,0,0,1,.15,1.35.8.8,0,0,1-1.11.34,2.44,2.44,0,0,1-1-2.83.61.61,0,0,1,.6-.32Zm1,3a.41.41,0,0,0,.58-.1c.26-.46-.12-1.09-.37-1.45a3.41,3.41,0,0,0-.94-1,.36.36,0,0,0-.49.13C65.05,75.6,66.15,77.12,66.63,77.39Z" transform="translate(-43.26 -44.99)"/><path d="M67,74.06c-.18-.3-.48-1-.25-1.36a.55.55,0,0,1,.8,0c.12.09.22.21.33.31h0c-.22-.35-.58-1.06-.27-1.49.12-.16.33-.27.49-.15a.28.28,0,0,1,0,.38.22.22,0,0,1-.32.07s-.11-.09-.15,0,.06.55.11.66a11.35,11.35,0,0,0,.9,1.49l.38.57-.33.44-.68-1a5.71,5.71,0,0,0-.87-.9s-.29-.23-.37-.12.22.88.3,1Z" transform="translate(-43.26 -44.99)"/><path d="M70.82,71.15a1.78,1.78,0,0,1-.22,1.58.75.75,0,0,1-1.13.11c-.65-.56-1.1-2.14-.41-2.92a.49.49,0,0,1,.71-.1c.53.47.11,1.56-.11,2.15l0,.12a2.16,2.16,0,0,0,.39.51.35.35,0,0,0,.53,0c.33-.38.2-1,.13-1.38Zm-1.39-1.08a.21.21,0,0,0-.32,0c-.36.41.18,1.48.4,1.84C69.71,71.39,69.88,70.46,69.43,70.07Z" transform="translate(-43.26 -44.99)"/><path d="M74.93,64.22l.08,0,.41,1.11-.11.07c-.38-.53-.88-.8-1.48-.41a.74.74,0,0,0-.29,1c.51.77,2.17.11,2.85,1.15A1.35,1.35,0,0,1,75.84,69a2.13,2.13,0,0,1-1.43.33l0,.37-.08,0-.49-1.19.12-.08c.44.56,1,.94,1.76.45A.88.88,0,0,0,76,67.68c-.57-.86-2.18-.2-2.82-1.17a1.19,1.19,0,0,1,.53-1.65,1.88,1.88,0,0,1,1.19-.31Z" transform="translate(-43.26 -44.99)"/><path d="M78.66,64.23l.48-.22,0,.87a7.43,7.43,0,0,0,.29,1.79s.08.14.16.1c.23-.1.25-.91.27-1.14h.16c0,.45,0,1.16-.49,1.4a.39.39,0,0,1-.57-.16,2.66,2.66,0,0,1-.1-.38h0a1.42,1.42,0,0,1-.67,1.18.81.81,0,0,1-1.11-.37,2.45,2.45,0,0,1,.9-2.85.58.58,0,0,1,.67.09Zm-1,3a.41.41,0,0,0,.53.27c.48-.23.54-1,.56-1.4a3.74,3.74,0,0,0-.17-1.38.35.35,0,0,0-.47-.17C77.44,64.86,77.44,66.74,77.67,67.23Z" transform="translate(-43.26 -44.99)"/><path d="M81.43,66.29l-.53.15,0-.46a9.53,9.53,0,0,0,0-2.14c0-.08-.06-.21-.19-.17-.29.08-.41.84-.47,1.06H80.1c.08-.43.16-1.14.72-1.3a.43.43,0,0,1,.57.32c0,.14.06.35.08.5v.12h0c.12-.5.35-1.25,1-1.42a.55.55,0,0,1,.71.37,2.91,2.91,0,0,1,0,1l0,.35a4.06,4.06,0,0,0,0,.77c0,.08.1.19.2.16.29-.09.46-.8.5-1l.17,0c-.08.41-.26,1.1-.75,1.24a.45.45,0,0,1-.61-.33,3.29,3.29,0,0,1,0-1l0-.35a2.72,2.72,0,0,0,0-.85.25.25,0,0,0-.31-.16c-.39.11-.64.81-.73,1.12a8.11,8.11,0,0,0-.24,1.77Z" transform="translate(-43.26 -44.99)"/><path d="M86.85,62.39l.52-.06-.23.84A7.19,7.19,0,0,0,86.86,65c0,.06,0,.16.12.15.25,0,.52-.78.61-1l.16,0c-.18.41-.33,1.11-.9,1.17a.38.38,0,0,1-.49-.33,1.7,1.7,0,0,1,0-.39h0a1.39,1.39,0,0,1-1,.91.79.79,0,0,1-.93-.69,2.43,2.43,0,0,1,1.74-2.43.6.6,0,0,1,.61.29ZM85,65c0,.2.16.44.42.41.53-.06.81-.75,1-1.15a3.63,3.63,0,0,0,.27-1.37.35.35,0,0,0-.39-.31C85.5,62.62,84.91,64.4,85,65Z" transform="translate(-43.26 -44.99)"/><path d="M88,63.29c.14-.32.57-1,1-1s.5.36.49.63,0,.3-.06.45h0c.16-.38.52-1.09,1-1.09.21,0,.42.12.42.32a.29.29,0,0,1-.29.25.22.22,0,0,1-.25-.22s0-.14,0-.14-.41.36-.47.47a10.61,10.61,0,0,0-.69,1.59l-.24.64h-.56l.39-1.11a5.89,5.89,0,0,0,.22-1.23c0-.06,0-.37-.11-.37s-.6.69-.66.84Z" transform="translate(-43.26 -44.99)"/><path d="M92.56,64.7a1.78,1.78,0,0,1-1.41.74.76.76,0,0,1-.76-.86c.09-.84,1.12-2.13,2.16-2a.48.48,0,0,1,.49.52c-.08.7-1.21,1-1.82,1.15l-.13,0a2.07,2.07,0,0,0-.19.61.36.36,0,0,0,.33.42c.5,0,.9-.4,1.2-.7Zm.08-1.76a.21.21,0,0,0-.21-.24c-.54-.06-1.1,1-1.26,1.39C91.72,63.94,92.58,63.54,92.64,62.94Z" transform="translate(-43.26 -44.99)"/><path d="M99.14,68l-.08,0,.06-.36a2.57,2.57,0,0,1-1.56-.22,1.7,1.7,0,0,1-1-2.32,3,3,0,0,1,3.79-1.5,2.15,2.15,0,0,1,.94.8l.34-.12.07,0-.77,1-.14-.06c.22-.61.31-1.2-.46-1.54-1.29-.56-2.77.93-3.2,1.89a1.17,1.17,0,0,0,.63,1.7c.91.4,1.51,0,2.17-.52l.15.06Z" transform="translate(-43.26 -44.99)"/><path d="M100.14,67.64a2.09,2.09,0,0,1,2.54-.78,1,1,0,0,1,.28,1.48,2,2,0,0,1-2.47.69A1,1,0,0,1,100.14,67.64Zm2.61,0a.46.46,0,0,0-.12-.66c-.66-.42-1.91.73-2.21,1.2a.45.45,0,0,0,.15.7C101.27,69.35,102.44,68.15,102.75,67.67Z" transform="translate(-43.26 -44.99)"/><path d="M102.76,70.56l-.43-.36.41-.22a9.44,9.44,0,0,0,1.78-1.21s.13-.16,0-.25-.92.13-1.15.2l-.08-.13c.4-.17,1.05-.5,1.49-.12a.43.43,0,0,1,0,.65,4,4,0,0,1-.37.34l-.1.08v0c.49-.17,1.25-.39,1.73,0a.57.57,0,0,1,.09.8,3.11,3.11,0,0,1-.84.59l-.32.16a4.89,4.89,0,0,0-.67.39c0,.06-.09.19,0,.26.23.19.91-.06,1.14-.16l.07.16c-.39.15-1.06.39-1.45,0a.45.45,0,0,1-.07-.68,3.48,3.48,0,0,1,.84-.55l.31-.16a2.68,2.68,0,0,0,.73-.44.24.24,0,0,0,0-.34c-.31-.26-1-.09-1.33,0a7.73,7.73,0,0,0-1.61.78Z" transform="translate(-43.26 -44.99)"/><path d="M106.88,72.06a3.78,3.78,0,0,0,.79-.35.12.12,0,0,0,0-.18c-.16-.17-.81-.07-1,0l0-.16c.39-.06,1-.2,1.31.15a.45.45,0,0,1,0,.65,2.83,2.83,0,0,1-1,.44l-.56.2a3.23,3.23,0,0,0-.63.27.11.11,0,0,0,0,.16c.19.21.91.1,1.14,0l0,.15c-.39.1-1.09.22-1.42-.14a.46.46,0,0,1,0-.68,2.72,2.72,0,0,1,.89-.38Zm2-1.29a.34.34,0,0,1,.46.5.33.33,0,0,1-.45,0A.31.31,0,0,1,108.9,70.77Z" transform="translate(-43.26 -44.99)"/><path d="M107.64,74.63a1.64,1.64,0,0,0-.39.14.24.24,0,0,0,0,.35c.28.4,1.2.33,1.58.26l1.69-.45.32.45-.86.26a7,7,0,0,0-1.65.66c-.06,0-.15.13-.09.22s.88.11,1.09,0l0,.16c-.39.1-1.09.21-1.38-.2a.45.45,0,0,1,.13-.71l.36-.21v0a1.63,1.63,0,0,1-1.48-.45.58.58,0,0,1,.09-.84,2.12,2.12,0,0,1,.6-.25l.4-.12a5.14,5.14,0,0,0,.91-.32c.06,0,.27-.12.19-.23s-1-.16-1.21-.14l0-.16c.44-.06,1.19-.14,1.51.31a.47.47,0,0,1-.14.66,2.48,2.48,0,0,1-.75.31Z" transform="translate(-43.26 -44.99)"/><path d="M109,78.2l-.24-.5.45,0a9,9,0,0,0,2.12-.4c.06,0,.19-.1.13-.22-.13-.27-.9-.25-1.13-.27l0-.15c.44,0,1.16,0,1.42.48a.43.43,0,0,1-.23.61,3.26,3.26,0,0,1-.47.17l-.12,0v0c.51,0,1.3.13,1.58.71a.56.56,0,0,1-.24.76,2.89,2.89,0,0,1-1,.21l-.35,0a6,6,0,0,0-.77.09c-.07,0-.16.14-.12.23.13.27.86.32,1.11.31v.17c-.42,0-1.13-.06-1.36-.52a.46.46,0,0,1,.22-.65,3.53,3.53,0,0,1,1-.17l.36,0a2.68,2.68,0,0,0,.85-.11.23.23,0,0,0,.09-.33c-.18-.36-.9-.49-1.23-.52a8.14,8.14,0,0,0-1.78.07Z" transform="translate(-43.26 -44.99)"/><path d="M111.75,82.91a1.56,1.56,0,0,1-1.29-1,.82.82,0,0,1,.59-1.1A2.28,2.28,0,0,1,113.64,82c.08.25.06.58-.19.66a.28.28,0,0,1-.36-.18.24.24,0,0,1,.14-.31c.11,0,.18,0,.22,0s0-.12,0-.18c-.23-.71-2.07-.68-2.52-.53a.42.42,0,0,0-.33.54c.16.49.73.66,1.15.74Z" transform="translate(-43.26 -44.99)"/><path d="M115.05,84.39l-1-.11.13.57-.16,0-.12-.57-.19,0c-.35,0-2.06-.17-2.29-.12s-.18,0-.16.16c.07.3.8.48,1,.55l0,.16c-.43-.12-1.1-.26-1.23-.82a.47.47,0,0,1,.34-.59,3.81,3.81,0,0,1,1,0l1.4.13-.13-.58.16,0,.12.57,1,.14Z" transform="translate(-43.26 -44.99)"/><path d="M112.75,85.82a2.7,2.7,0,0,0-1-.2.47.47,0,0,0-.42.55c.06.48.71.78,1.08.92l.05-.16c-.23-.08-.88-.4-.92-.68a.12.12,0,0,1,.1-.13,4,4,0,0,1,.67.14l.58.16a3.13,3.13,0,0,0,1.07.21.45.45,0,0,0,.4-.52c-.06-.47-.64-.7-1-.87l0,.16c.2.07.8.36.83.59a.12.12,0,0,1-.12.14,3.65,3.65,0,0,1-.84-.16Zm2.62.61a.33.33,0,0,0,.34.3.31.31,0,0,0,.27-.38.31.31,0,1,0-.61.08Z" transform="translate(-43.26 -44.99)"/><path d="M113.41,91.45a2.39,2.39,0,0,0,.73.23.18.18,0,0,0,.19-.16c0-.33-.62-.77-.82-.91a9.48,9.48,0,0,0-1.87-.84v-.53l1.08.4a7.17,7.17,0,0,0,1.46.45.17.17,0,0,0,.18-.13c0-.49-1.12-1.08-1.49-1.23l-1.21-.51v-.5l1.23.42a7.42,7.42,0,0,0,1.26.3c.07,0,.23,0,.23-.11,0-.27-.67-.63-.88-.71l0-.15c.41.16,1,.5,1,1a.43.43,0,0,1-.48.41,5.63,5.63,0,0,1-.61-.08h0c.42.26,1.08.66,1.08,1.27a.44.44,0,0,1-.46.45,1.35,1.35,0,0,1-.5-.11v0c.36.25,1,.64,1,1.18a.49.49,0,0,1-.53.47,3.49,3.49,0,0,1-1-.28l-.72-.29a1.62,1.62,0,0,0-.41-.13c-.07,0-.16,0-.16.12,0,.27.65.68.86.8l-.07.14c-.35-.15-1-.58-1-1A.45.45,0,0,1,112,91a3.27,3.27,0,0,1,1.05.32Z" transform="translate(-43.26 -44.99)"/><path d="M70.47,99.08c-1.51-1.76-3.4,1.23-4.74,1.89-.51.48-1.17-.84-1.68-.53-1.25.33-3.41,2.39-3.91.94,1.63-.66,4.35-2.77,6-1.75,1.48-.69,2.4-2.67,4-2.51,1.24,1.38,7.75,3.25,4.09,4.27" transform="translate(-43.26 -44.99)"/><path d="M70.19,103.19c3-1.31,6-3.51,9.25-4,1.28.82,2.55,1.67,1.19,2.65-2.16-2.66-4.56-.45-7,.46C72.57,102.68,71.1,104.46,70.19,103.19Z" transform="translate(-43.26 -44.99)"/><path d="M62.38,105.63c-.94-1.44,4.8-2.26,5.82-3.41,3.19-.8,5.72,3.65,8.19,5.16,2,.92,3.51,2.8,5.41,3.76.21.19,1.78.43,1,.7-3.53.49-6.94-3.44-9.67-5.37C67.92,101.41,68.24,103.68,62.38,105.63Z" transform="translate(-43.26 -44.99)"/><path d="M91.72,103.51c-.17-1.66,3.46-1.69,4.61-2.83a71.2,71.2,0,0,0,6.16-5.1c1.32-1.11,2-.8,2.67.39,1.49,1.22,1.15,1.51-.41,2.32-1.74-2.57-2.1-1.47-4,.16A23.09,23.09,0,0,1,91.72,103.51Z" transform="translate(-43.26 -44.99)"/><path d="M103.59,99.93c-.36.39-4.52,2.41-3.5,1,3.19-1,5.88-5.19,9.21-4.26.51.81,1.65,1.52,2.19,2.27-.83.79-1.34,1.81-2.14.33C107.92,96.34,105.32,99,103.59,99.93Z" transform="translate(-43.26 -44.99)"/><path d="M116,100.18c-.76,2.77-1.59.84-2.62-.51-2-1.24-3,2.69-5.32,3.29-4.85,1.84-7.46,6.52-12.44,7.86-1.25-.69,3.5-2.22,4-3.15a57.17,57.17,0,0,1,9-6.19C111.68,98.86,113.25,95.28,116,100.18Z" transform="translate(-43.26 -44.99)"/><path d="M90.54,85.19,90.62,83H85.77l0,1.14A17.15,17.15,0,0,1,90.54,85.19Z" transform="translate(-43.26 -44.99)"/><path d="M92.67,74.06a4.32,4.32,0,0,0-2.21-2.27A7.64,7.64,0,0,1,88,69.59c-.24-.38-.9-.43-1-.45l-.21-.1a3,3,0,0,1-.81-.47,10.14,10.14,0,0,1-1.25-1,8.92,8.92,0,0,1-.78-.86,1.66,1.66,0,0,0,0,.82,4,4,0,0,0,.5,1.22c.2.19,2.15,1.51,2.54,3a10.37,10.37,0,0,1,.26,1.66,4.07,4.07,0,0,0,1.3,2.83,3.28,3.28,0,0,1,1.1,1.58h.88a3.06,3.06,0,0,0-.05-1.24,6.34,6.34,0,0,0-1.08-1.91,3.59,3.59,0,0,1-.5-1.1,1.22,1.22,0,0,1,.07-1c.09-.18.36-.74.29,0-.13,1.42,2.73,2.87,1.85,5.18h.81l.23-.54A4.45,4.45,0,0,0,92.67,74.06ZM88.07,73a1.32,1.32,0,0,1-.59-.36,2.17,2.17,0,0,1-.43-1.06,4.56,4.56,0,0,0-.18-.68l-.12-.34H87a2.08,2.08,0,0,1,.35.33,1.32,1.32,0,0,1,.46.82A3.45,3.45,0,0,0,88.22,73C88.35,73,88.07,73,88.07,73Z" transform="translate(-43.26 -44.99)"/><path d="M83.52,70.76c0-.72,1.42-1.63,2.57.12a2.59,2.59,0,0,1,.5,1.27c.1,3.78,1.53,4.45,1.82,4.63a1.22,1.22,0,0,1,.52.76.84.84,0,0,1-.05.27H87a2.94,2.94,0,0,0,0-1,6.56,6.56,0,0,0-.81-1.61,2.27,2.27,0,0,1-.57-1.73c0-.07,0,0-.06,0a2.63,2.63,0,0,0-.25,1.58,7.3,7.3,0,0,0,.67,2,1.29,1.29,0,0,1,.15.76H84.29s-.23-.42-.28-.53a6.21,6.21,0,0,1-.21-.85,5.48,5.48,0,0,1,.09-1.23c.08-.29.39-1,.39-1l.47-.85s.29-.54.41-.79a1.27,1.27,0,0,0,.16-1.11c0-.16-.17-.46-.44-.5-.43,0-1,.08-.88.68a.8.8,0,0,0,0,.18s-.09.22-.24,0a1.85,1.85,0,0,1-.28-1.07Z" transform="translate(-43.26 -44.99)"/><polygon points="48.77 36.19 40.96 36.19 40.28 33.33 49.45 33.33 48.77 36.19"/><polygon points="48.45 36.69 48.52 37.62 41.45 37.62 41.52 36.69 48.45 36.69"/><path d="M87.85,45a44.58,44.58,0,1,0,44.58,44.58A44.58,44.58,0,0,0,87.85,45Zm42.53,39.56-3.48,1.64,3.74,1,.21,2.11-6.4-1.92-4,.4-.22-2.28,4-.39,5.9-3Zm-.42-3.2-2,.55-.53-1.9-7.86,2.2L119,80l7.86-2.2-.53-1.89,2-.55Zm-2.17-7-9.39,4-.9-2.13,9.39-4Zm-4.39-7.64A3.21,3.21,0,0,1,124.8,68a2.55,2.55,0,0,1,.25,2.32,2.26,2.26,0,0,1-1,1.11,6.89,6.89,0,0,1-.88.42l-1-1.6.49-.25c.35-.21.93-.66.6-1.22a.73.73,0,0,0-1.08-.17c-.61.36-.7.84-.62,2.06.1,1.47.05,2.84-1.52,3.77a2.94,2.94,0,0,1-4.37-1.13,2.7,2.7,0,0,1,.85-4,6.93,6.93,0,0,1,.9-.41l1,1.67c-.45.21-.57.26-.67.32-.48.29-1.11.8-.7,1.49a1,1,0,0,0,1.46.23c.82-.49.81-1.12.75-2.21-.1-1.4-.13-2.6,1.31-3.46A2.89,2.89,0,0,1,123.4,66.67Zm-3.18-4.85c1.22,1.37.74,2.87-.45,3.93-1.62,1.45-2.75.71-3.21.37l0,0c.46.77.65,1.31-.64,2.75a15.46,15.46,0,0,0-1.48,1.75l-1.55-1.74c.33-.38.51-.6,1.15-1.24,1.41-1.42,1.42-1.75.71-2.56l-2.92,2.61L110.26,66l7.61-6.79Zm-4.45-4.53-1.22,1.63-2.36-1.76L111,58.75l2,1.47-1.15,1.53-2-1.47-1.33,1.78,2.67,2L110,65.68l-4.52-3.38,6.11-8.16Zm-9-5.84-2.36,7.25h0l4.43-6.17,1.87,1-6.58,8.07L102,60.49l2.61-10.13Zm-3.15-1.4-3.48,9.59-2.18-.79,3.48-9.59ZM93.28,47.33l2,.39,1.17,4.9h0l.89-4.48,1.89.37-2,10-1.83-.36-1.1-6h0l-1.1,5.56-1.89-.37Zm-6.13-.21v7.47c0,.36.14.89.71.89s.73-.35.73-.89V47.11h2.32v7.66a3,3,0,0,1-6.07-.09V47.12Zm-14.1,2.64,3.47,3.64h0l-1.49-4.32,1.83-.62,3.3,9.64-1.76.6-4-4.63h0l1.84,5.36-1.83.63-3.3-9.64Zm-6.39,3c1.58-.94,3-.18,3.76,1.19,1.11,1.88.16,2.84-.25,3.23v0c.84-.3,1.41-.38,2.57,1.16a14.44,14.44,0,0,0,1.43,1.79l-2,1.18a16.85,16.85,0,0,1-1-1.37c-1.12-1.65-1.44-1.72-2.37-1.19l2,3.38-2,1.18-5.19-8.78Zm-5.33,3.5,1.37,1.51-2.19,2,1.34,1.48,1.82-1.64L65,61l-1.82,1.64,1.48,1.65,2.47-2.23,1.36,1.51-4.18,3.78-6.83-7.57Zm-4.8,4.4L58.12,62l-1.24,1.53,6.36,5.11L61.78,70.4l-6.35-5.11-1.24,1.53-1.58-1.27ZM50.7,68.55a2.6,2.6,0,0,1,1.89-1.35,2.35,2.35,0,0,1,1.45.3,6.75,6.75,0,0,1,.79.56l-.9,1.66-.46-.31c-.35-.2-1-.49-1.36.08a.73.73,0,0,0,.39,1c.61.35,1.06.2,2.09-.47,1.23-.81,2.45-1.43,4-.52a2.94,2.94,0,0,1,1.14,4.36,2.69,2.69,0,0,1-3.89,1.21,6.72,6.72,0,0,1-.8-.58l1-1.73a5.48,5.48,0,0,0,.61.43c.48.28,1.24.58,1.64-.11a1,1,0,0,0-.52-1.39c-.82-.48-1.37-.16-2.29.43-1.18.77-2.2,1.39-3.66.56a2.9,2.9,0,0,1-1.54-2.29A3.29,3.29,0,0,1,50.7,68.55Zm-2.35,4.84,1.92.66-1,2.78,1.89.65.8-2.32,1.8.62L53,78.1l2.09.72,1.09-3.15,1.92.66-1.83,5.34-9.64-3.31ZM45.15,87l7.19-.14v0L45.4,85l.22-1.7,7.16.1v0l-6.91-2.09.24-1.85L56,82.85l-.25,1.92-5.9.19v0l5.66,1.64-.25,2-10.38.81Zm3,7.89a2.46,2.46,0,1,1,2.46,2.46A2.46,2.46,0,0,1,48.16,94.93Zm.65,11.26c-.82-1.92-.08-3,2.54-4.13a8.39,8.39,0,0,1,3.77-.88,2.29,2.29,0,0,1,1.79,1.51c.94,2.19-.91,3.39-3.16,4.35C51.17,108.15,49.69,108.23,48.81,106.19Zm3.07,5.51-1-1.63,7.25-4.53,2.39,3.82-1.45.91-1.37-2.2-1.58,1,1.1,1.76-1.36.85-1.1-1.76Zm7.23,8.37,2.72-2.91-.89-.84-2.72,2.91-1.41-1.31,5.84-6.25,1.4,1.31-2.22,2.38.9.84L65,113.82l1.4,1.31-5.84,6.25Zm2.76,2.59,4.95-7,3.55,2.53-1,1.39-2-1.42-1,1.37,1.65,1.17-.93,1.31-1.65-1.18-1.08,1.52L66.67,124l-1,1.4Zm7.44,4.78.53-1.53-1.33-.71-.93,1.3-1.52-.82,5.46-6.77,1.85,1L71,128.36Zm6.81.92L75.57,130l-3.92-1.34,2.78-8.09,1.82.63L74,127.64Zm4.26-4.26L78.8,131l-1.87-.47,1.58-6.85-1.59-.39.39-1.72,5,1.25L82,124.49Zm6.92,7.83-1.92-.19.38-4-1.22-.12-.38,4-1.91-.18.81-8.51,1.91.18-.31,3.24,1.22.11.31-3.24,1.91.19Zm-.21-11.62a30.82,30.82,0,1,1,2.2,0m6,11.3a2.25,2.25,0,0,1-2.85-1.86,5.55,5.55,0,0,1,0-.82l1.6-.32c0,.42,0,.52,0,.62.08.46.3,1.11,1,1,.43-.07.71-.47.61-1.07-.14-.79-.64-1-1.5-1.25-1.12-.34-2.06-.67-2.31-2.05a2.42,2.42,0,0,1,.63-2.22,2.72,2.72,0,0,1,1.4-.73,2.11,2.11,0,0,1,1.87.5,1.87,1.87,0,0,1,.59,1.08,6.33,6.33,0,0,1,.06.82l-1.53.31c0-.28,0-.39,0-.47-.06-.33-.24-.92-.77-.83a.62.62,0,0,0-.45.8c.11.58.45.8,1.42,1.09,1.17.36,2.22.81,2.49,2.32A2.47,2.47,0,0,1,95.3,131.58Zm7.89-3.26a2.49,2.49,0,0,1-1.61,1.31,2.59,2.59,0,0,1-2,0A4,4,0,0,1,97.75,127c-.76-2.26-1.5-4.89,1.1-5.76a2.14,2.14,0,0,1,3,1.49,6.09,6.09,0,0,1,.25,1l-1.58.54c-.12-.45-.15-.55-.21-.74s-.41-1.2-1-1a.62.62,0,0,0-.39.47,6.57,6.57,0,0,0,.48,2.21l.54,1.59c.28.82.6,1.47,1.23,1.26s.5-1.15.2-2c-.06-.2-.12-.32-.26-.67l1.6-.54a5.79,5.79,0,0,1,.52,1.13A3.09,3.09,0,0,1,103.19,128.32Zm2-.3-3.67-7.72,1.74-.82L107,127.2Zm3.39-1.66-4.53-7.25,3.69-2.31.91,1.45-2.07,1.29.89,1.42,1.72-1.08.85,1.36-1.72,1.08,1,1.58,2.34-1.47.91,1.45Zm7.83-5.7-4.53-2.35h0L115,121.9l-1.21,1-5.62-6.44,1.26-1.09,3.83,1.74,0,0-2.52-2.88,1.2-1.06,5.62,6.44Zm4-4a2.6,2.6,0,0,1-1.7,1.05,4.08,4.08,0,0,1-2.94-1.31c-1.82-1.54-3.81-3.4-2-5.5a2.15,2.15,0,0,1,3.3-.26,6.9,6.9,0,0,1,.76.77l-1.08,1.27-.56-.52c-.28-.23-1-.81-1.4-.3a.64.64,0,0,0-.1.6,6.91,6.91,0,0,0,1.57,1.64l1.29,1.08c.65.56,1.27.94,1.7.44s-.17-1.24-.88-1.83c-.16-.14-.27-.22-.57-.44l1.09-1.29a6.46,6.46,0,0,1,1,.69,3,3,0,0,1,1.24,2A2.49,2.49,0,0,1,120.46,116.71Zm2.38-3.33-7.28-4.49,2.29-3.71,1.45.9L118,108.15l1.43.88,1.06-1.73,1.37.84-1.07,1.73,1.58,1,1.45-2.35,1.45.9Zm4.08-7.13a2.25,2.25,0,0,1-3.12,1.37,7.16,7.16,0,0,1-.72-.41l.61-1.52a5.17,5.17,0,0,0,.56.3c.42.19,1.08.36,1.34-.25a.82.82,0,0,0-.56-1.09c-.74-.32-1.16,0-1.86.57-.9.74-1.7,1.34-3,.79a2.46,2.46,0,0,1-1.51-1.75,2.68,2.68,0,0,1,.17-1.57,2.13,2.13,0,0,1,1.44-1.29,2,2,0,0,1,1.23.11,6.69,6.69,0,0,1,.72.39l-.59,1.46-.41-.22c-.31-.13-.91-.3-1.12.19-.12.28,0,.62.42.81s.91.07,1.69-.58c1-.78,1.9-1.41,3.31-.8A2.46,2.46,0,0,1,126.92,106.25Zm-1.8-8.89a2.46,2.46,0,1,1,2.46-2.46A2.46,2.46,0,0,1,125.12,97.36Z" transform="translate(-43.26 -44.99)"/><path d="M54.36,104.56c1.43-.61,1.35-1,1.24-1.34s-.41-.59-1.74,0l-2.4,1c-1,.41-1.58.85-1.35,1.4s.91.36,1.84,0Z" transform="translate(-43.26 -44.99)"/><path d="M118,64.21c.94-.84.88-1.32.48-1.77l-.35-.4-2.25,2,.37.41C116.84,65.11,117.44,64.73,118,64.21Z" transform="translate(-43.26 -44.99)"/><polygon points="28.32 75.9 25.95 79.23 26.97 79.78 28.34 75.91 28.32 75.9"/><path d="M68.57,55.38c-.64-1.08-1.12-1.12-1.64-.81l-.46.27L68,57.44l.48-.29C69.22,56.72,69,56.05,68.57,55.38Z" transform="translate(-43.26 -44.99)"/><path d="M97.21,89.54a24.66,24.66,0,0,0-2.71-2.9c-.48-.34-1.87-.15-2.09-.15a3.87,3.87,0,0,1-1.1-.5,17.38,17.38,0,0,0-5.62-1.45c-2.67-.16-5.53.61-6.71,3.69-2.31,6,4.68,8.17,6.94,8.7L85.78,93c-1.5-.36-3.13-1.16-2.88-3.17.27-2.21,2.36-2.25,3-2.25l.43,12.07c.9-.4,1.82-.72,2.56-1l1.16-.39.44-.19a2.12,2.12,0,0,0,.83-1.06s.73.87-1,1.66h0c-1,.45-4.46,1.34-6.09,2.78a3.82,3.82,0,0,0-1.13,4,5.78,5.78,0,0,0,3.2,2.7l-.14-3.88a3.78,3.78,0,0,0-.69.48,1.16,1.16,0,0,1,1-1l.27,7.77L89.63,110s0-.37.11-.41.26.27.19.44a1.28,1.28,0,0,1-.46.54c-.28.21-2,1.3-2.66,1.88v0a5,5,0,0,0-1.23,1.67,5.8,5.8,0,0,0-.11,4.27c.15.37.58,1,.87,1s0-.52,0-.52-.75-2.51.53-3.81l.19,5.24h.76c.48,0,1,0,1.44,0l.24-6.6c1.69-.72,3.47-1.61,3.44-3.44a5.78,5.78,0,0,0-3.15-4.87l.14-2.6c2.87-1.19,5.52-2.88,5.23-5.8a3.26,3.26,0,0,0-1.88-2.47,10.55,10.55,0,0,0-3.07-.79l.17-4.82.64.34a1.33,1.33,0,0,1,.38.39,2.76,2.76,0,0,0,.3.77c.48.67,2.62.79,4.07,1,1.07.17,1.38.15,1.68-.43A1.07,1.07,0,0,0,97.21,89.54Z" transform="translate(-43.26 -44.99)"/><path class="cls-2" d="M361.27,73.54c0-2.67,0-7.8.75-10.2s2.61-2.33,4.32-2.4V59.41c-2,.07-4,.2-6,.27s-4.11-.2-6.19-.27v1.53c2.08,0,4.21.27,5,3.07.53,2.07.53,7.2.53,9.53v14.6c0,8.93-3.67,13.72-11,13.72s-10-4.86-10-13.39V72.07c0-2.13,0-7.06.48-8.86.64-2.33,2.88-2.27,4.58-2.27V59.41c-2.72.07-5.38.2-8.1.27-2.51-.07-5.07-.2-7.57-.27v1.53c1.7,0,3.89,0,4.58,2.27.54,1.8.54,6.73.54,8.86V88c0,12.06,4.64,16.26,14.18,16.26,10.13,0,13.91-6.26,13.91-18.39V73.54Z" transform="translate(-43.26 -44.99)"/><path class="cls-2" d="M390.54,83.87c0-6.33-2.88-9.19-7.94-9.19-3.79,0-6.67,1.93-8.53,6.06H374l-.69-6.06c-2.62.6-4.59,1.66-7.36,2.06v1.34c1.7,0,3.14-.27,3.57,2.13a77.16,77.16,0,0,1,.27,8.06v8.2c0,4.4.26,6-3.74,6.33v1.33c2.08-.06,4.11-.2,6.19-.26,1.92.06,3.89.2,5.81.26V102.8c-4.21-.33-3.73-2.33-3.73-6.73V85.74c0-4.87,2.66-8.93,6.82-8.93,5.07,0,4.91,6.53,4.91,11.13v8.53c0,4.4.26,6-3.73,6.33v1.33c2.08-.06,4.1-.2,6.18-.26,1.92.06,3.89.2,5.81.26V102.8c-4.16-.33-3.73-2.33-3.73-6.73V83.87Z" transform="translate(-43.26 -44.99)"/><path class="cls-2" d="M395.33,76.74v1.34c1.07-.07,3.3-.2,3.68,1.46.21,1,.21,6.13.21,7.4v9.53c-.05,4.4.27,6-3.68,6.33v1.33c2.08-.06,4.16-.2,6.24-.26,1.92.06,3.89.2,5.71.26V102.8c-4.22-.33-3.63-2.33-3.74-6.73V74.68l-8.42,2.06Z" transform="translate(-43.26 -44.99)"/><path class="cls-2" d="M418.83,105.33H420l6.29-19.39A48.92,48.92,0,0,1,429,78.21a3.3,3.3,0,0,1,2.08-1.6V75.28c-1.28.06-2.56.2-3.84.26s-2.62-.2-3.95-.26v1.33c1.28.2,3,.53,3,2.73,0,3.13-4.37,15.2-5.33,18.8l-5.17-16.07a15.33,15.33,0,0,1-.7-3.26c0-1.87,1.92-2.13,3-2.2V75.28c-1.81.13-3.62.2-5.43.26s-3.79-.2-5.71-.26v1.33a4.07,4.07,0,0,1,2.4,1.4,16.93,16.93,0,0,1,1.55,3.73l8,23.79Z" transform="translate(-43.26 -44.99)"/><path class="cls-1" d="M450.13,97.8c-1.6,2.67-4,4.93-6.72,4.93-5.71,0-8.37-7.06-8.37-13.39l.21-3.2h15.3c.54,0,1.34.27,1.34-.6,0-7.2-5-10.86-10.19-10.86-6.93,0-12,7.53-12,15.86,0,8.53,5.44,14.33,12.05,14.33,4,0,7-1.8,9.49-5.67l-1.12-1.4ZM435.52,84.34c.64-4.33,2.24-8.13,6.24-8.13,3.36,0,5.17,2.67,5.17,6.8,0,1.66-1.76,1.33-2.61,1.33Z" transform="translate(-43.26 -44.99)"/><path class="cls-2" d="M456.1,96.47c0,4.4.27,6-3.73,6.33v1.33c2.08-.06,4.11-.2,6.18-.26s4.11.2,6.14.26V102.8c-4.48-.27-4.06-1.86-4.06-6.73v-6.6c0-3.06,0-6.33,1.23-9.06.8-1.67,2.56-3.33,4.16-3.33,2.08,0,1.6,3.46,3.84,3.46a2.23,2.23,0,0,0,1.86-2.4,3.53,3.53,0,0,0-3.78-3.46c-3.68,0-6.35,2.66-7.73,6.73h-.11a26.23,26.23,0,0,0-.64-6.73c-2.35.66-4.69,1.86-7.2,2.06v1.34c1.71,0,3-.27,3.52,2.13.38,1.53.32,6.26.32,8.06v8.2Z" transform="translate(-43.26 -44.99)"/><path class="cls-2" d="M475.55,102.47a10.17,10.17,0,0,0,6.6,2.4,8.59,8.59,0,0,0,8.82-8.8c0-6-3.78-7.73-7.92-10.13-2.28-1.4-5.58-2.6-5.58-6.07a3.61,3.61,0,0,1,3.84-3.66c3.78,0,5.1,3.53,6.18,6.86h1.2l.12-8.33h-.72l-1.2,1.6a11.62,11.62,0,0,0-5.82-1.66c-4.14,0-7.44,3.4-7.44,8,0,5,3.72,7.2,7.2,9.2,2.58,1.47,6.06,3,6.06,6.8,0,3.2-2.4,4.66-5,4.66-4.44,0-6.48-4.19-7.44-8.46h-1.2l.24,9.53h.6l1.5-1.93Z" transform="translate(-43.26 -44.99)"/><path class="cls-2" d="M493,76.74v1.34c1.06-.07,3.3-.2,3.68,1.46.21,1,.21,6.13.21,7.4v9.53c0,4.4.27,6-3.68,6.33v1.33c2.08-.06,4.16-.2,6.24-.26,1.92.06,3.89.2,5.7.26V102.8c-4.21-.33-3.62-2.33-3.73-6.73V74.68L493,76.74Z" transform="translate(-43.26 -44.99)"/><path class="cls-2" d="M509.52,77.61V98c0,5,2.61,6.87,6.45,6.87,2.56,0,5.23-1.07,6.19-4.27l-1-.86c-1,1.66-2,3-3.84,3-2.83,0-3.31-3.13-3.31-6.13v-19h6.08v-1.8h-6.08V68h-.8a16.21,16.21,0,0,1-6.45,8.4v1.2Z" transform="translate(-43.26 -44.99)"/><path class="cls-2" d="M532.12,104.13l-2,5.66a47.82,47.82,0,0,1-2.4,6.14c-1.06,2.06-4.05,1.86-4.05,4.93,0,.93.64,1.86,1.6,1.6,2.24,0,3.79-5.13,4.48-7.2l11.09-32,.69-1.93c.85-2.27.91-4.2,3.15-4.27V75.74c-1.18.07-2.35.2-3.52.27-1.39-.07-2.72-.2-4.11-.27v1.33c1.12.07,2.94.47,2.94,2.34a24.88,24.88,0,0,1-1.5,6.19l-4,12-3.41-10.2c-.59-1.8-2.18-6.26-2.18-8,0-2.14,2.5-2,3.25-2.34V75.74c-2,.07-4,.2-6,.27-1.81-.07-3.62-.2-5.44-.27v1.33a4.07,4.07,0,0,1,2.4,1.4,16.93,16.93,0,0,1,1.55,3.73l7.52,21.93Z" transform="translate(-43.26 -44.99)"/><path class="cls-2" d="M178.08,105.19h2.1l9.89-35c1-3.73,1.8-8.93,6.24-8.8V59.87c-2.1.07-4.14.2-6.24.27s-4.32-.2-6.47-.27V61.4c3,.33,5.15.33,5.15,4.47,0,2.6-2.4,11.79-3.18,14.73L181.5,95.12h-.12l-9.84-35.25h-1.92L160.2,95.66h-.12l-6.3-22.86c-.41-1.67-1.79-6.6-1.79-8.13,0-3.07,3.47-3.07,5.39-3.27V59.87c-2.94.07-5.93.2-8.87.27s-5.76-.2-8.64-.27V61.4c1.74.13,3.3.2,4.32,1.73.9,1.14,1.74,4.67,2.22,6.2l10.49,35.86h2c1.62-5.33,3.3-10.6,4.92-15.93l4.74-18.13h.12l9.36,34.06Z" transform="translate(-43.26 -44.99)"/><path class="cls-1" d="M211,97.66c-1.6,2.66-4,4.93-6.72,4.93-5.71,0-8.37-7.07-8.37-13.4l.21-3.2h15.3c.54,0,1.34.27,1.34-.6,0-7.19-5-10.86-10.19-10.86-6.93,0-12,7.53-12,15.86,0,8.53,5.43,14.33,12,14.33,4,0,7-1.8,9.49-5.66L211,97.66ZM196.4,84.19c.64-4.33,2.24-8.13,6.24-8.13,3.36,0,5.17,2.67,5.17,6.8,0,1.67-1.76,1.33-2.61,1.33Z" transform="translate(-43.26 -44.99)"/><path class="cls-2" d="M216.71,102.32a10.17,10.17,0,0,0,6.6,2.4,8.58,8.58,0,0,0,8.81-8.8c0-6-3.78-7.73-7.92-10.13-2.27-1.4-5.57-2.6-5.57-6.06a3.61,3.61,0,0,1,3.84-3.67c3.77,0,5.09,3.54,6.17,6.87h1.2L230,74.6h-.72L228,76.2a11.5,11.5,0,0,0-5.81-1.67c-4.14,0-7.44,3.4-7.44,8,0,5,3.72,7.2,7.2,9.2,2.57,1.46,6,3,6,6.79,0,3.2-2.4,4.67-5,4.67-4.44,0-6.48-4.2-7.44-8.47h-1.2l.24,9.53h.6l1.5-1.93Z" transform="translate(-43.26 -44.99)"/><path class="cls-2" d="M236.16,77.46v20.4c0,5,2.61,6.86,6.45,6.86,2.56,0,5.22-1.06,6.18-4.26l-1-.87c-1,1.67-2,3-3.84,3-2.82,0-3.3-3.13-3.3-6.13v-19h6.07v-1.8h-6.07V67.87h-.8a16.23,16.23,0,0,1-6.45,8.39v1.2Z" transform="translate(-43.26 -44.99)"/><path class="cls-1" d="M269,97.66c-1.6,2.66-4,4.93-6.71,4.93-5.71,0-8.37-7.07-8.37-13.4l.21-3.2h15.3c.53,0,1.33.27,1.33-.6,0-7.19-5-10.86-10.18-10.86-6.93,0-12,7.53-12,15.86,0,8.53,5.44,14.33,12.05,14.33,4,0,7-1.8,9.49-5.66L269,97.66ZM254.43,84.19c.64-4.33,2.24-8.13,6.24-8.13,3.36,0,5.17,2.67,5.17,6.8,0,1.67-1.76,1.33-2.61,1.33Z" transform="translate(-43.26 -44.99)"/><path class="cls-2" d="M276.08,96.32c0,4.4.27,6-3.73,6.34V104c2.08-.07,4.11-.2,6.19-.27s4.1.2,6.13.27v-1.33c-4.48-.27-4.05-1.87-4.05-6.74V89.33c0-3.07,0-6.34,1.22-9.07.8-1.66,2.56-3.33,4.16-3.33,2.08,0,1.6,3.47,3.84,3.47a2.25,2.25,0,0,0,1.87-2.4,3.54,3.54,0,0,0-3.79-3.47c-3.68,0-6.35,2.67-7.73,6.73h-.11a26.68,26.68,0,0,0-.64-6.73c-2.34.67-4.69,1.87-7.19,2.07v1.33c1.7,0,3-.27,3.51,2.13.38,1.54.32,6.27.32,8.07v8.19Z" transform="translate(-43.26 -44.99)"/><path class="cls-2" d="M317.67,83.73c0-6.33-2.88-9.2-7.95-9.2-3.78,0-6.66,1.93-8.53,6.07h-.1l-.7-6.07c-2.61.6-4.58,1.67-7.36,2.07v1.33c1.71,0,3.15-.27,3.58,2.13a80.32,80.32,0,0,1,.26,8.07v8.19c0,4.4.27,6-3.73,6.34V104c2.08-.07,4.11-.2,6.19-.27,1.92.07,3.89.2,5.81.27v-1.33c-4.21-.34-3.73-2.34-3.73-6.74V85.59c0-4.86,2.66-8.93,6.82-8.93,5.07,0,4.9,6.53,4.9,11.13v8.53c0,4.4.27,6-3.73,6.34V104c2.08-.07,4.11-.2,6.19-.27,1.92.07,3.89.2,5.81.27v-1.33c-4.16-.34-3.73-2.34-3.73-6.74V83.73Z" transform="translate(-43.26 -44.99)"/><path class="cls-2" d="M396.14,66.69a3.44,3.44,0,0,1,3.46-3.45A3.38,3.38,0,0,1,403,66.69a3.34,3.34,0,0,1-3.26,3.38A3.45,3.45,0,0,1,396.14,66.69Z" transform="translate(-43.26 -44.99)"/><path class="cls-2" d="M494.64,66.69a3.43,3.43,0,0,1,3.45-3.45,3.38,3.38,0,0,1,3.38,3.45,3.34,3.34,0,0,1-3.26,3.38A3.44,3.44,0,0,1,494.64,66.69Z" transform="translate(-43.26 -44.99)"/></svg>
